<?xml version="1.0" encoding="UTF-8" standalone="no"?>
<svg xmlns:rdf="http://www.w3.org/1999/02/22-rdf-syntax-ns#" xmlns="http://www.w3.org/2000/svg" height="1049.1" viewBox="0 0 895.3125 1049.0625" width="895.31" version="1.1" xmlns:cc="http://creativecommons.org/ns#" xmlns:dc="http://purl.org/dc/elements/1.1/">
<path d="m590.85 1048c-0.64199-0.642-1.1673-2.3724-1.1673-3.8452 0-1.7207-0.94904-3.5804-2.6552-5.2031-1.4604-1.3889-3.7617-4.6961-5.1141-7.3493-2.5007-4.9061-9.2183-12.55-22.699-25.828-21.006-20.691-21.525-21.322-19.329-23.519 1.3572-1.3571 7.7343 3.1612 17.463 12.373 4.1304 3.9109 11.069 10.275 15.419 14.142 4.3499 3.8672 10.351 9.5178 13.335 12.557l5.426 5.5256 1.869-4.1194c1.028-2.2656 1.8783-5.6497 1.8896-7.5202 0.0245-4.0432 1.4903-5.5104 5.2326-5.2376 4.0437 0.2948 3.3433-2.2042-4.8598-17.339-7.1293-13.154-12.54-24.919-12.54-27.269 0-0.72497-1.0547-3.3017-2.3438-5.7261s-2.3438-5.4155-2.3438-6.6468-0.38767-2.4784-0.86148-2.7712c-1.2158-0.75141-7.7134-12.349-9.7433-17.391-0.93417-2.3203-2.9381-5.776-4.4531-7.6794-5.2858-6.6406-1.9434-9.0261 4.0178-2.8675 3.4742 3.5892 11.976 16.699 11.979 18.472 0.00094 0.53935 2.112 5.334 4.691 10.655 2.579 5.3209 6.5492 14.216 8.8228 19.767 5.2137 12.73 17.831 35.95 20 36.809 4.2733 1.6918 5.0956 0.3058 2.232-3.7617-0.96361-1.3686-2.0767-3.5431-2.4736-4.8322-0.39687-1.2891-3.3674-6.7734-6.6012-12.188-3.2338-5.4141-6.7327-12.375-7.7753-15.469-1.0426-3.0938-3.1899-8.6604-4.7718-12.37-1.5819-3.71-2.8789-7.5068-2.8823-8.4375-0.004-0.93056-0.84437-2.9576-1.8688-4.5045s-1.8654-3.5825-1.8688-4.5236c-0.004-0.94106-1.6937-4.5516-3.7562-8.0232-2.2338-3.76-3.75-7.4997-3.75-9.2492 0-1.6154-0.4299-3.2027-0.95533-3.5274-0.52542-0.32473-1.9683-2.5894-3.2064-5.0327-6.6917-13.206-13.015-17.276-15.18-9.7725-0.62427 2.1636-2.6176 6.5933-4.4296 9.8438-1.8195 3.2638-4.5976 10.737-6.2048 16.691-1.6006 5.9297-3.9798 14.789-5.2871 19.688-1.3073 4.8984-3.0091 10.805-3.7817 13.125-0.77265 2.3203-2.0042 6.4447-2.7369 9.1652-0.73266 2.7205-1.9396 5.8846-2.6821 7.0312s-2.2765 4.5765-3.4089 7.6219c-4.1407 11.136-16.079 33.567-19.772 37.151-3.9135 3.7979-4.362 5.0764-2.2043 6.2839 2.5462 1.425 10.796 11.862 10.003 12.655-0.89483 0.8947-3.9039-0.035-3.9039-1.2056 0-0.431-2.2311-3.2336-4.9581-6.2278-2.7269-2.9943-5.7518-6.7097-6.722-8.2565-0.97013-1.5469-2.5359-3.3638-3.4794-4.0376-2.2593-1.6133-2.2277-3.3294 0.0353-1.9162 3.4755 2.1705 9.3122-6.1175 12.973-18.421 0.76706-2.5781 2.174-6.164 3.1266-7.9687 0.95255-1.8047 3.2599-7.9219 5.1274-13.594 1.8675-5.6719 4.3731-12.422 5.568-15 3.524-7.6039 8.9217-23.374 14.279-41.719 0.82819-2.8359 2.2434-7.0547 3.1449-9.375 0.90152-2.3203 1.9269-5.5784 2.2787-7.2403 0.57421-2.7126 5.1319-7.7597 7.0073-7.7597 0.40516 0 2.3382-1.2728 4.2958-2.8284 4.0663-3.2315 5.1382-3.1129 11.817 1.3069 6.3969 4.233 24.636 35.912 26.55 46.115 0.33494 1.7854 1.8919 6.2987 3.4598 10.03 1.568 3.731 4.0445 9.7366 5.5034 13.346 1.459 3.6094 7.4332 16.06 13.276 27.669 5.8429 11.608 12.615 25.363 15.049 30.565 2.4341 5.2024 5.0708 9.9945 5.8594 10.649 1.8582 1.5422 1.8407 4.3537-0.0315 5.0721-1.6698 0.6408-6.2862-3.889-8.4898-8.3305-7.3886-14.892-16.133-23.086-21.138-19.807-1.4947 0.9793-2.6576 1.1608-3.6039 0.5626-2.3602-1.4922-2.6525-1.1753-7.1246 7.7294l-4.34 8.6414 1.5835 4.4035c2.9742 8.2709-0.90061 14.96-5.8175 10.043zm27.44-4.5164c-2.4402-4.7188-6.0952-9.7463-9.0711-12.477-3.7384-3.4309-2.3354-6.2105 2.0024-3.9673 4.7023 2.4317 14.417 15.404 13.441 17.947-0.92075 2.3994-4.8314 1.4772-6.3724-1.5028zm-408.65-14.323c-1.7966-2.707-4.849-8.2968-6.783-12.422-1.934-4.125-4.6445-9.1875-6.0232-11.25-3.2214-4.8188-9.3321-16.38-9.366-17.719-0.0143-0.56681-1.28-2.6878-2.8125-4.7132-1.5325-2.0255-2.7864-4.0233-2.7864-4.4396 0-0.87244-9.2129-19.835-12.672-26.082-1.2804-2.3123-2.3297-4.6326-2.3318-5.1562-0.007-1.547-4.0745-9.0705-7.3076-13.515-1.6506-2.2688-3.001-4.6023-3.001-5.1856 0-7.5558-8.3865-12.928-13.878-8.8895-4.6272 3.4029-5.1167 5.5439-1.2675 5.5439 5.0772 0 7.0582 4.1608 3.8953 8.1817-1.0312 1.311-1.875 2.8807-1.875 3.4881 0 1.8346-4.7782 5.6878-11.719 9.4499-3.6094 1.9565-7.1953 4.0843-7.9688 4.7285-1.6554 1.3787-20.419 9.7768-21.844 9.7768-0.5373 0-3.5415 1.234-6.676 2.7423-5.0912 2.4497-13.564 4.5421-31.012 7.6581-15.049 2.6877-23.636 5.0362-29.194 7.9847-7.0503 3.7402-7.5285 3.7945-10.32 1.1718-2.0196-1.8973-2.2616-1.9226-4.4806-0.46875-3.9661 2.5987-6.9037 1.5852-5.7601-1.987 0.59708-1.8652 7.9667-6.7885 10.161-6.7885 0.80298 0 4.3869-1.6875 7.9643-3.75s6.8572-3.75 7.2886-3.75c0.77147 0 11.016-4.5476 28.559-12.677 12.067-5.592 24.708-10.636 30.915-12.336 2.8234-0.77325 6.8683-2.4226 8.9886-3.6652s4.4822-2.2593 5.2486-2.2593c2.1674 0 16.194-10.799 28.623-22.035l4.1523-3.7542-1.7136-3.7458c-0.94247-2.0602-2.4191-4.8005-3.2814-6.0896-3.3331-4.9825-10.39-30.07-10.492-37.3-0.13065-9.2524-7.8879-11.72-18.846-5.9939-2.0625 1.0776-6.7031 3.2036-10.312 4.7245-3.6094 1.5209-11.203 4.739-16.875 7.1515-9.129 3.8829-30.994 11.522-45.342 15.841-5.52 1.61-9.49 1.9-9.49 0.64 0-1.0586 7.4123-3.8774 10.196-3.8774 1.1905 0 3.2372-0.84375 4.5482-1.875s2.968-1.875 3.6821-1.875c0.71415 0 3.9268-1.0945 7.1392-2.4323s12.294-4.6973 20.181-7.4657c7.8869-2.7684 15.432-5.8926 16.767-6.9427s3.1748-1.9093 4.0884-1.9093c5.9476 0 16.361-6.9701 13.519-9.0485-2.7247-1.9923-5.0945-1.5334-13.107 2.5385-4.1153 2.0914-11.912 5.5045-17.326 7.5847-33.315 12.8-38.366 14.82-42.656 17-9.413 4.79-35.68 15.53-36.348 14.86-1.5266-1.53 0.6136-3.94 6.2096-7 11.846-6.47 29.548-15.02 33.419-16.14 1.2891-0.37153 3.3499-1.4612 4.5796-2.4216 1.2297-0.96032 2.6355-1.746 3.1241-1.746 0.84691 0 8.3005-3.0507 19.484-7.9746 21.705-9.5562 35.978-15.479 44.531-18.479 3.0938-1.0849 6.6797-2.6882 7.9688-3.5629 1.2891-0.87465 3.5039-2.2933 4.9219-3.1525 3.3173-2.0102 3.7267-8.6264 0.70312-11.363-4.5524-4.1198-0.42775-11.838 10.312-19.298 20.258-14.07 32.783-23.2 36.586-26.669 2.333-2.1283 5.4971-4.6628 7.0312-5.6324 1.5342-0.96953 4.3246-3.3814 6.2011-5.3597s5.3264-4.9582 7.6664-6.6219c4.9257-3.502 7.377-6.3879 9.315-10.966 1.2628-2.9835 7.8417-9.8392 15.419-16.068 1.6498-1.3562 3.7592-3.7017 4.6875-5.2122 0.92827-1.5105 4.0058-4.7988 6.8389-7.3073s6.3162-6.1693 7.7402-8.1351c2.7426-3.786 6.0842-4.7202 8.118-2.2696 1.4492 1.7461-0.89782 8.6748-3.5732 10.549-1.0664 0.74696-3.0689 3.2862-4.45 5.6428-2.3735 4.0501-9.6691 13.398-14.756 18.906-13.396 14.506-23.635 23.876-32.449 29.694-5.4141 3.5734-13.078 9.0426-17.032 12.154-3.9534 3.1111-8.3831 6.3976-9.8438 7.3033-1.4606 0.90576-5.187 3.5235-8.2807 5.8172-3.0938 2.2937-8.0596 5.7714-11.035 7.7282-13.646 8.9733-17.798 13.402-12.566 13.402 4.9277 0 9.9717 14.533 10.001 28.815 0.004 1.6684 0.44289 4.8324 0.97661 7.0312 12.233 50.396 17.402 64.954 29.71 83.664 1.6882 2.5664 3.0695 5.3392 3.0695 6.1618 0 0.82256 1.8984 5.3962 4.2188 10.164 2.3203 4.7674 4.2188 9.1696 4.2188 9.7829 0 0.99263 4.7208 10.577 13.472 27.351 1.614 3.0938 4.0685 7.3681 5.4545 9.4986 2.6177 4.0239 10.628 19.351 14.998 28.698 4.3876 9.385-2.1924 12.08-8.0276 3.2879zm-147.91-65.93c13.164-3.5268 38.218-17.239 31.547-17.266-2.6862-0.0113-22.865 7.5516-29.062 10.892-1.5469 0.83362-5.2383 2.7131-8.2031 4.1767-9.6553 4.766-7.2784 5.6793 5.7187 2.1972zm36.234-6.0366c3.0938-0.99712 7.9871-2.6388 10.874-3.6482 6.6412-2.3219 27.472-13.449 31.7-16.933l3.1996-2.6363-6.2359-3.0699c-7.0344-3.463-5.6296-3.8634-15.163 4.3214-5.8937 5.0598-29.077 20.981-30.552 20.981-0.46996 0-0.85448 0.63281-0.85448 1.4062 0 1.7805 0.24631 1.7658 7.0312-0.42094zm25.981-112.61c6.2248-2.4389 6.7457-2.9672 5.9709-6.0545-0.78785-3.139-4.5341-2.7047-12.841 1.4887-11.037 5.5717-5.3476 9.353 6.8704 4.5658zm527.84 187.58c-0.63966-1.0244-1.1634-2.3955-1.1638-3.0469-0.0004-0.6516-1.266-3.8592-2.8125-7.1282s-2.8118-6.6522-2.8118-7.5183c0-0.8662-2.7422-5.339-6.0938-9.9397-3.3516-4.6008-6.0938-8.8204-6.0938-9.3769s-1.6756-3.534-3.7235-6.6167-3.7354-6.221-3.75-6.9741c-0.0237-1.2259-2.1231-5.8737-7.8507-17.381-1.0266-2.0625-2.6393-4.7561-3.5837-5.9858-0.9444-1.2296-1.7171-3.52-1.7171-5.0897s-0.80921-5.626-1.7982-9.0142c-3.0987-10.615-3.9657-15.303-3.0077-16.261 1.1837-1.1837 2.924-0.0351 2.9583 1.9525 0.0234 1.3563 3.3283 8.0207 9.6194 19.398 2.035 3.6802 8.1657 17.117 8.1657 17.897 0 0.33347 5.2314 11.209 11.625 24.167 11.822 23.96 18.016 38.983 17.078 41.425-0.75149 1.9584-3.6849 1.6628-5.0406-0.5079zm-166.44-7.9034c-1.1355-1.246-4.5959-5.2937-7.6896-8.9947-3.0938-3.7011-8.4174-9.7479-11.83-13.438-3.413-3.6896-6.6847-7.6339-7.2705-8.7651-0.96708-1.8676-12.64-16.351-18.735-23.245-1.3622-1.5409-3.6992-4.494-5.1934-6.5625-3.0189-4.1792-14.73-17.657-15.742-18.117-0.61009-0.27712-16.058-19.146-26.749-32.673-2.6922-3.4063-7.4746-8.9839-10.627-12.395-12.428-13.444-28.01-29.851-36.04-37.949-4.6406-4.6794-9.2812-9.6171-10.312-10.973-1.0312-1.3555-4.9431-5.1296-8.693-8.3869-3.8115-3.3107-7.0814-6.9716-7.4152-8.3018-0.8886-3.5405-11.463-16.933-15.767-19.969-8.6143-6.0765-14.589-11.797-16.968-16.247-1.3785-2.5781-4.1464-6.6735-6.1509-9.1009s-5.5726-7.7008-7.9292-11.719c-2.3566-4.0179-5.6609-8.7819-7.3429-10.587-5.7562-6.176-14.578-22.131-14.578-26.366 0-0.61031-1.0701-3.3717-2.378-6.1364-5.1655-10.919-4.9193-19.06 0.57642-19.06 2.6518 0 7.2307 4.4712 7.9465 7.7597 3.5847 16.467 13.946 36.235 28.541 54.454 4.8995 6.1161 9.5129 12.022 10.252 13.125 0.73901 1.1026 2.678 3.4814 4.3089 5.2861 3.0041 3.3242 11.762 14.748 16.776 21.881 1.5076 2.145 6.2277 7.7293 10.489 12.41 4.2614 4.6803 8.9342 9.9403 10.384 11.689 3.192 3.8498 15.382 16.673 27.485 28.914 11.195 11.321 24.277 25.811 27.183 30.107 1.2207 1.8047 3.6593 4.9099 5.4191 6.9004s3.7616 4.9437 4.4485 6.5625c0.68684 1.6188 2.4388 4.0198 3.8933 5.3355s6.1526 6.6946 10.44 11.953c9.6307 11.811 10.227 11.942 11.564 2.5297 1.7626-12.41 4.4404-18.528 8.3441-19.067 1.263-0.17411 3.1458-1.1032 4.1841-2.0646 2.7639-2.5593 8.3241-4.6496 12.379-4.6536 1.9502-0.002 4.8561-0.80255 6.4577-1.7792 6.3343-3.8626 13.57-0.46246 24.703 11.607 12.797 13.875 14.191 26.879 3.9134 36.523-1.6139 1.5144-2.9344 3.513-2.9344 4.4413 0 0.96788-1.6997 2.7564-3.9844 4.1925-2.1914 1.3776-4.5373 3.2837-5.2132 4.2358-4.4123 6.2166-18.208 5.0237-18.554-1.6044-0.0526-1.0072-0.15803-2.2946-0.23437-2.8608-0.17109-1.2689-6.029-3.802-10.451-4.5193-1.8047-0.29278-4.4414-0.79528-5.8594-1.1167-3.7386-0.8474-3.2743 0.276 3.547 8.5821 3.3688 4.1021 8.4079 10.412 11.198 14.021 2.79 3.6094 6.7886 8.6719 8.8857 11.25 2.0972 2.5781 5.6011 7.0078 7.7865 9.8438 2.1854 2.8359 7.243 9.2912 11.239 14.345 3.9961 5.0538 7.2656 9.589 7.2656 10.078 0 1.6883-2.9083 0.8825-4.9666-1.3763zm-14.955-69.524c9.2434-6.042-0.9981-14.003-11.237-8.7356-2.287 1.1766-3.8244 1.0462-5.9273-0.50316-3.0027-2.2121 3.2747-8.1692 8.2962-7.8729 4.0014 0.23616 5.3154-0.99619 5.3384-5.0065 0.0358-6.234-1.9614-6.9183-6.5062-2.2294-4.702 4.8512-15.042 4.9466-15.042 0.13867 0-1.9165 5.5536-7.0313 8.4375-7.7708 7.1551-1.8348 10.802-7.1249 5.6866-8.2485-15.758-3.4611-21.503 8.4022-14.62 30.191 3.9452 12.489 15.116 16.873 25.574 10.037zm13.086-6.2574c4.5799-5.0088 6.5123-13.248 3.662-15.614-1.037-0.86063-1.7005-0.39662-3.2933 2.303-3.0714 5.2057-4.2499 3.7736-4.783-5.8121-0.62192-11.181-7.1068-20.018-14.691-20.018h-2.6266l3.0175 2.1094c2.0995 1.4676 3.0224 2.8674 3.0337 4.601 0.009 1.3704 1.1509 4.6786 2.5377 7.3517 1.8683 3.601 2.491 6.1128 2.4037 9.6959-0.10836 4.45 2.4262 13.147 4.7564 16.32 1.3182 1.7953 3.8462 1.3992 5.9828-0.9375zm-42.857 0.46875c-0.003-0.38671-0.39775-2.1797-0.87748-3.9844-0.47974-1.8047-1.3374-5.0742-1.9059-7.2656-1.7514-6.7511-4.7114-4.8411-4.7114 3.0402 0 3.3813 0.48143 4.4638 2.8844 6.4858 2.8674 2.4128 4.6203 3.0682 4.6103 1.724zm310.07 50.762c-2.4567-0.75535-6.4645-2.5396-8.9062-3.9652-2.4418-1.4255-5.9161-3.1705-7.7208-3.878-6.4533-2.5295-16.53-7.8604-23.906-12.648-4.125-2.677-9.4996-5.6066-11.943-6.5102-2.4439-0.90356-4.7086-2.0719-5.0326-2.5962-0.32407-0.52434-3.5637-2.3789-7.1992-4.1212-3.6355-1.7422-7.6989-4.1879-9.0299-5.435-1.331-1.247-7.0606-4.6634-12.732-7.5922-5.6719-2.9288-10.945-5.8878-11.719-6.5756-0.77344-0.68784-3.1507-1.715-5.2829-2.2825-4.21-1.13-35.98-31.44-35.98-34.33 0-2.7816 2.5403-1.2331 9.3985 5.7288 9.9118 10.062 18.552 16.943 30.445 24.249 5.6719 3.484 11.158 7.1102 12.192 8.0581 1.0336 0.94791 9.2601 5.3964 18.281 9.8855 9.0211 4.4891 19.355 9.8514 22.965 11.916 16.221 9.2794 36.523 18.668 42.06 19.451 5.6272 0.79537 12.784 5.8424 12.784 9.0154 0 0.98682-2.9362 3.2762-3.9227 3.0586-0.16281-0.036-2.306-0.6833-4.7627-1.4385zm-653.21-90.31c-1.2924-0.39273-3.6972-1.4108-5.3441-2.2624-1.6468-0.8516-3.8914-1.5484-4.9879-1.5484-10.057 0-9.6912-21.059 0.47789-27.493 6.0424-3.8227 8.4741-1.0778 4.0396 4.5598l-2.0706 2.6323 2.6873 1.9472c1.478 1.071 5.0202 3.963 7.8715 6.4266 8.7417 7.5532 24.52 3.1189 24.52-6.891 0-2.776-4.4223-4.3918-7.5047-2.7421-2.5363 1.3574-3.1088-0.37734-0.81028-2.4554 4.4058-3.9832 13.89-1.9329 13.926 3.0106 0.008 1.0802 0.8581 2.7277 1.8894 3.6609 4.4493 4.0266-0.0524 13.511-7.1166 14.993-1.4999 0.31475-4.8365 1.3653-7.4146 2.3346-2.5781 0.96925-7.2079 2.2627-10.288 2.8743-3.0805 0.61164-6.0336 1.2369-6.5625 1.3894-0.52887 0.15253-2.019-0.044-3.3114-0.43674zm464.84-23.02c-1.3974-3.0669 1.0264-8.6283 6.4042-14.694 9.6821-10.921 19.881-29.018 19.991-35.471 0.0218-1.2891 1.1293-4.6641 2.461-7.5 2.8538-6.0776 4.4008-13.866 4.5695-23.005l0.12176-6.5991 6.7471-6.9646c3.7109-3.8305 6.7471-7.2743 6.7471-7.6528 0-1.1492 7.7003-5.9586 12.188-7.6121 5.8885-2.1698 27.356-3.1101 36.562-1.6015 3.8672 0.63366 9.1362 1.3618 11.709 1.6181 3.0286 0.30172 5.5998 1.2419 7.2932 2.6668 1.4385 1.2104 4.1851 2.4391 6.1036 2.7303 1.9184 0.29119 7.3448 1.3582 12.059 2.3711 43.699 9.3903 91.333-24.627 69.402-49.564-2.1507-2.4456-5.3504-6.5839-7.1103-9.1963s-4.8002-5.7388-6.7562-6.9476c-8.7837-5.4286-11.206-17.626-4.2088-21.192 3.7383-1.9053 7.9839-6.7852 8.033-9.233 0.021-1.0454 0.67258-2.8066 1.4481-3.9138 1.6094-2.2978 0.0727-5.529-5.966-12.544-1.8051-2.097-2.9232-4.2495-2.6191-5.0421 0.94857-2.4719-1.0962-2.4964-5.8836-0.0705-5.7107 2.8938-5.9944 2.9025-9.526 0.2915l-2.8213-2.0859-4.8751 2.714c-2.6813 1.4927-5.8316 3.7265-7.0006 4.964-2.3603 2.4986-4.6385 2.4996-6.2108 0.003-1.1103-1.763 4.0672-12.621 10.055-21.087 3.1251-4.4186 6.618-5.3809 7.6564-2.1094 0.90973 2.8663 9.9284 0.84277 12.132-2.722 4.1366-6.6931 20.08-11.521 26.715-8.09 4.1453 2.1436 4.3513 1.6002 2.565-6.7638-0.85373-3.9973-1.9761-11.487-2.4942-16.643l-0.94199-9.375 4.1776-4.0003c2.2977-2.2001 5.4767-4.2601 7.0645-4.5776 3.6994-0.73988 3.1342-2.5809-0.91371-2.9763-1.7128-0.1673-4.0006-0.88496-5.084-1.5948-2.8105-1.8414-8.1238-0.42318-14.268 3.8083-11.092 7.6394-10.251-0.00073 0.93152-8.4621 12.777-9.6676 39.023-10.905 39.023-1.8397 0 1.154-0.63281 2.341-1.4062 2.6378-0.77344 0.29679-1.4062 1.1857-1.4062 1.9753 0 2.5254 4.9183 1.6187 9.8563-1.8172 17.107-11.903 16.528-10.134 8.4947-25.93-5.5126-10.84-9.851-22.627-13.586-36.911-0.71108-2.7192-8.2848-17.786-14.479-28.804-3.14-5.62-12.6-17.63-13.86-17.63-9.7539 0-4.1778-36.49 6.2414-40.844 1.727-0.7216 3.4102-2.1629 3.7403-3.2029 0.37367-1.1774 1.4174-1.8909 2.7659-1.8909 4.6766 0 5.5405-7.5907 1.974-17.344-0.75423-2.0625-1.3898-5.1488-1.4125-6.8585-0.0226-1.7097-0.42839-3.8321-0.90169-4.7164-1.1963-2.2353-5.702-22.531-5.702-25.684 0-3.4316-1.0673-3.3483-13.555 1.0577-11.753 4.1469-12.469 4.9142-6.891 7.3872 4.1535 1.8414 7.0913 4.5129 6.0776 5.5266-0.31519 0.31521-1.6748-0.14877-3.0213-1.031-5.9643-3.908-15.509-5.09-22.331-2.7656-5.941 2.0243-5.257 2.9694 4.6149 6.377 8.3815 2.8931 12.606 5.0443 12.606 6.4196 0 0.89872-4.1763-0.0298-8.0059-1.78-2.4296-1.1104-10.812-2.8689-22.59-4.7392-4.0186-0.63812-6.9036 1.0689-6.9036 4.0849 0 2.3164-0.1787 2.402-3.8044 1.8222-7.6154-1.2178-15.498 4.5008-9.7893 7.1018 4.3816 1.9964 2.5846 2.9308-4.5924 2.388-9.7285-0.73577-15.735 3.1116-11.648 7.4614l2.0363 2.1675-5.554 0.004c-8.1564 0.005-13.907 3.9245-10.604 7.2273 2.047 2.047-0.21594 3.142-6.1553 2.9786-4.4785-0.12321-6.4999 0.26536-8.3805 1.611-2.3682 1.6946-2.5364 2.5264-1.4013 6.9296 0.29507 1.1446-0.5557 1.3499-4.5726 1.1036-5.6141-0.34433-6.4177 0.0546-19.432 9.6452-4.572 3.3694-8.7758 6.1262-9.3418 6.1262-0.56592 0-4.3927 2.3555-8.504 5.2345s-9.907 6.4741-12.879 7.9892c-2.9724 1.5151-7.7798 4.3275-10.683 6.2499-11.207 7.4206-16.993 10.864-24.225 14.415-6.602 3.2425-14.034 7.6756-33.281 19.851-11.446 7.2401-15.213 8.4285-16.875 5.3228-2.2008-4.1122-9.7806 1.2307-9.2274 6.5043 0.18283 1.743-0.48071 3.7982-1.8042 5.5884-2.948 3.9874-2.6667 4.9502 2.2008 7.5324 12.256 6.5019 16.633 15.778 11.087 23.498l-3.3692 4.6897-5.7714-0.0224c-8.2204-0.0319-12.914-1.3309-14.961-4.1404-1.1887-1.6319-3.8068-3.0185-8.243-4.366-7.2079-2.1896-9.2861-4.2228-9.2861-9.0854 0-1.7239-0.49999-4.0558-1.1111-5.182-0.61109-1.1262-1.355-3.5243-1.6532-5.329-1.0281-6.222-9.4394-4.0902-11.313 2.867-1.3818 5.1317-3.1583 5.5568-7.1462 1.7101l-3.2873-3.1709-2.2759 2.6304c-2.6326 3.0427-2.7915 4.4343-0.91983 8.0538 0.74582 1.4423 1.1314 3.4814 0.85679 4.5314-0.27459 1.05 0.13585 3.1373 0.91208 4.6383 0.77622 1.5011 2.0926 5.3585 2.9254 8.5721 1.5678 6.0503 6.1505 13.345 9.4185 14.992 1.0312 0.51966 3.7734 1.8298 6.0938 2.9114 5.4882 2.5584 17.115 12.765 20.69 18.163 3.872 5.8457 9.569 8.776 22.218 11.428 3.6204 0.75915 10.95-2.9745 11.936-6.0798 1.7429-5.4914 13.972-1.3266 14.943 5.0892 0.24004 1.5854 0.67611 4.4105 0.96905 6.2778 0.59666 3.8035-3.3071 9.2328-6.6802 9.2909-0.95328 0.0164-2.5522 0.64922-3.553 1.4062-1.0009 0.75704-2.4109 1.3764-3.1334 1.3764-0.72246 0-2.3862 0.84375-3.6972 1.875-2.673 2.1026-7.7518 2.4564-10.864 0.75689-2.1981-1.2002-8.1707-2.3526-16.787-3.239-4.6908-0.48259-5.6673-0.94965-7.7821-3.7223-1.33-1.7438-2.8741-3.1705-3.4312-3.1705-2.9788 0-20.311-11.185-20.424-13.18-0.19699-3.4619 2.4663-3.8629 10.095-1.52 10.112 3.1055 8.7777-3.3029-2.4034-11.54-1.9266-1.4193-4.7685-3.9369-6.3153-5.5945-4.7711-5.1128-5.5291-5.2205-12.307-1.7489l-6.0819 3.1151-2.2898-2.6304c-2.6808-3.0796-2.8654-4.631-0.7591-6.3791 1.3861-1.1504 1.3246-1.319-0.65131-1.7855-1.5186-0.35849-2.438-1.5031-3.0241-3.7648-1.0114-3.9029-2.4671-5.0017-4.3964-3.3183-3.3504 2.9236-7.0966 4.0658-11.82 3.604-11.657-1.1396-15.249 15.035-5.2681 23.722 5.0572 4.4017-2.7322 8.1484-13.617 6.5499-8.9097-1.3084-9.1596-1.2635-9.1596 1.6452 0 2.7207 1.8178 3.7131 13.326 7.2752 3.3029 1.0224 4.679 2.4887 3.4209 3.6452-1.5115 1.3894-20.229-1.8175-24.246-4.1542-4.977-2.8949-7.386-3.1904-9.6116-1.1792-1.484 1.3411-2.3411 1.4786-4.3808 0.70312-3.18-1.209-7.7523-1.2488-8.4785-0.0737-1.5018 2.43 10.99 5.3308 13.97 3.2439 4.3623-3.0554 10.167-0.62315 8.0326 3.3656-1.5517 2.8993 0.32751 4.6875 4.926 4.6875 4.5756 0 10.783 3.4196 9.1507 5.0408-1.3454 1.3358-15.867 1.0187-21.369-0.46666-5.1382-1.387-5.5406-0.86772-2.7429 3.5405 3.2993 5.1985 7.213 8.8053 10.203 9.4034 3.5066 0.70132 4.9569 2.5144 3.1866 3.9836-1.0777 0.89443-3.0749 0.53519-9.7322-1.7506-12.211-4.1928-14.247-4.0075-14.247 1.2962 0 5.7545-3.931 7.5115-8.4375 3.7712-2.487-2.0642-11.127-6.0684-13.094-6.0684-2.3198 0-2.3475 0.32992-0.29117 3.4682l1.615 2.4648-2.5287-0.63466c-13.403-3.364-17.09-1.2374-7.0666 4.0766 16.697 8.8524 13.963 12.563-3.698 5.0176-5.8844-2.514-8.4121-3.146-10.633-2.6583-2.3464 0.51536-3.3978 0.18437-5.4054-1.7017-3.43-3.19-12.35-4.55-12.35-1.86 0 4.0908 11.953 11.858 26.399 17.154 5.2017 1.907 8.1887 4.1615 7.0382 5.312-1.0208 1.0208-10.969-1.4578-13.723-3.4192-1.4627-1.0415-3.0224-1.8937-3.4661-1.8937-0.44366 0-2.2792-0.78923-4.0789-1.7538-1.7997-0.9646-5.0301-2.0508-7.1787-2.4138-2.1485-0.36299-5.8524-1.8941-8.2308-3.4024s-4.7857-2.7424-5.3496-2.7424c-1.616 0-11.097-5.6656-11.097-6.6313 0-1.3894 2.4571-1.01 5.8058 0.89644 4.8182 2.7431 8.1829 3.268 8.9039 1.3892 0.88112-2.2962-3.8005-5.6645-8.9455-6.436-4.8268-0.72384-11.389-6.7618-11.389-10.479 0-2.3546-2.2988-4.9892-4.3532-4.9892-1.4757 0-1.3494 3.3309 0.60454 15.938 1.9256 12.424 2.0684 17.686 0.53915 19.87-1.1931 1.7034-1.4756 4.9162-1.4656 16.667l0.0124 14.557 3.7062 6.6824c12.216 22.026 82.232 82.591 110.37 95.474 2.9462 1.3488 7.4823 4.0742 10.08 6.0565 2.5981 1.9823 7.255 4.9908 10.349 6.6856 3.0938 1.6948 7.5234 4.4036 9.8438 6.0195 2.3203 1.6159 6.9609 4.3514 10.312 6.0787 3.3516 1.7274 9.2638 5.5113 13.138 8.4087 3.8745 2.8974 9.7238 6.6624 12.998 8.3667 3.2747 1.7043 8.6334 4.7387 11.908 6.7431 9.4951 5.8116 15.885 8.7531 30.393 13.991 7.4766 2.6993 14.485 5.4683 15.574 6.1535 1.0892 0.68513 4.4459 1.8896 7.4594 2.6765 5.9144 1.5445 10.248 4.2069 10.248 6.2963 0 3.6576-21.543 0.28153-33.388-5.2323-2.7772-1.2928-5.5965-2.3547-6.2651-2.3598-2.1385-0.0161-16.181-8.5931-17.59-10.744-0.74725-1.1404-3.5716-3.069-6.2764-4.2857s-6.8919-3.8192-9.3048-5.7834c-2.4128-1.9641-4.8558-3.5712-5.429-3.5712-2.1118 0-12.785-6.0126-15.965-8.9942-3.9546-3.707-13.831-9.7558-15.929-9.7558-0.82951 0-4.2085-1.9649-7.5089-4.3664s-11.233-7.0162-17.628-10.255c-6.3951-3.2386-12.322-6.5052-13.171-7.259-0.84906-0.75378-3.1215-2.022-5.0499-2.8183-1.9284-0.79629-5.0924-2.67-7.0312-4.1639-7.3688-5.6776-17.879-13.263-25.556-18.444-4.3828-2.9577-8.8619-6.2855-9.9535-7.3952s-4.4106-3.7051-7.3754-5.7676c-2.9649-2.0625-7.2654-5.332-9.5566-7.2656-2.2913-1.9336-4.5602-3.5156-5.042-3.5156-1.2611 0-17.864-17.04-24.65-25.3-7.3419-8.9358-14.367-15.897-18.48-18.311-3.1788-1.8659-5.8203-10.632-6.6336-22.014-0.31806-4.451 2.1048-26.562 3.118-28.455 1.4955-2.7944 0.29049-16.182-2.544-28.263-1.3307-5.6719-2.76-13.067-3.1761-16.433-1.2268-9.9251-3.8916-13.996-9.1783-14.021-1.6515-0.008-4.0517-0.49228-5.3337-1.0764-1.8592-0.84709-3.1489-0.73127-6.3722 0.57219-2.2227 0.89884-7.6272 1.8619-12.01 2.1402-4.3828 0.27827-8.822 1.0611-9.8648 1.7396-1.6034 1.0432-2.8101 0.94919-7.8179-0.6094-3.257-1.0137-6.8922-1.8431-8.0782-1.8431-6.2384 0-10.102-11.812-6.0537-18.506 1.1728-1.939 2.4582-5.424 2.8565-7.7443 3.5794-20.849 3.6864-22.012 2.6755-29.062-1.3538-9.4424-1.4032-9.6868-3.6935-18.281-1.0993-4.125-1.7699-8.69-1.4903-10.144 0.27962-1.4544-0.0649-3.7747-0.76558-5.1562-2.1804-4.2991-5.2243-13.649-6.2503-19.199-0.5401-2.9217-2.0166-7.6516-3.2812-10.511-1.2645-2.8594-2.2992-6.0537-2.2992-7.0985s-0.83036-3.7225-1.8452-5.9503c-1.0149-2.2278-2.1076-5.8961-2.4282-8.1517-0.64509-4.538-2.2547-12.696-5.7112-28.945-1.2614-5.9297-2.7228-13.734-3.2478-17.344-0.52492-3.6094-1.5243-8.6719-2.2208-11.25-0.69653-2.5781-1.7475-8.2734-2.3355-12.656-0.58799-4.3828-1.891-11.977-2.8955-16.875-1.0045-4.8984-1.824-10.646-1.8211-12.773 0.003-2.1266-0.63936-5.6937-1.4273-7.927s-1.214-4.6302-0.94681-5.3265c0.2672-0.69631-0.14281-2.7705-0.91113-4.6094-1.6044-3.8399-1.83-8.3611-0.45943-9.2081 1.2415-0.76728 1.1957-6.2393-0.0798-9.5483-1.5308-3.9712-1.1753-28.853 0.51466-36.022 0.77685-3.2956 1.4187-9.3968 1.4263-13.558 0.007-4.1614 0.87333-11.544 1.9238-16.406 1.0505-4.8621 2.2979-11.582 2.7721-14.934 2.0419-14.432 3.5951-20.802 5.5904-22.926 1.3536-1.4409 2.3094-4.1724 2.887-8.2507 0.47488-3.3532 1.2942-7.2298 1.8208-8.6147 0.52654-1.3849 0.95735-3.7196 0.95735-5.1883 0-6.3496 17.025-44.604 25.322-56.898 1.531-2.2685 3.0417-5.1528 3.3571-6.4096 0.31542-1.2568 3.2723-5.0784 6.5708-8.4925s6.9415-7.5335 8.0956-9.1543c1.1541-1.6207 5.2347-6.5383 9.0681-10.928 3.8334-4.3896 8.4084-9.9777 10.167-12.418 1.7583-2.4402 5.7668-6.2371 8.9076-8.4375s7.7927-6.743 10.337-10.095c3.557-4.6847 5.5959-6.4579 8.8177-7.6687 2.305-0.86623 4.9371-2.1319 5.8491-2.8125 0.91198-0.68065 3.8321-2.8592 6.4892-4.8411 2.6571-1.982 4.831-3.9497 4.831-4.3727 0-0.72313 2.4862-2.4008 15-10.122 2.8359-1.7497 8.4518-4.8169 12.48-6.816 4.0279-1.999 8.4576-4.4167 9.8438-5.3726 4.8357-3.3347 31.038-15.202 36.857-16.693 3.2257-0.82638 9.0453-2.776 12.933-4.3325 3.8872-1.5565 9.6073-3.1796 12.711-3.6069 3.1041-0.42727 8.597-1.8907 12.206-3.252 3.6094-1.3614 8.5653-2.8317 11.013-3.2674 2.4478-0.43571 4.8339-1.0291 5.3023-1.3186 0.98067-0.60609 23.36-3.9961 31.028-4.7001 2.8359-0.26036 7.8984-0.86299 11.25-1.3392 23.19-3.2948 76.61-0.69085 84.383 4.1133 0.89656 0.5541 18.047 5.0648 25.037 6.5849 5.4084 1.1761 26.265 9.6524 43.861 17.826 4.125 1.916 11.297 5.8987 15.938 8.8505 4.6406 2.9518 11.28 6.9227 14.754 8.8243 3.4742 1.9016 8.2821 5.1584 10.684 7.2374 2.402 2.0789 6.5814 5.0295 9.2876 6.5567 2.7061 1.5273 7.6014 5.1981 10.878 8.1575 3.277 2.9593 8.1239 7.1612 10.771 9.3374 4.6708 3.8399 18.625 19.154 23.018 25.261 3.3102 4.6019 18.895 23.192 19.748 23.555 0.41374 0.17647 1.6372 2.0749 2.7188 4.2188 1.0816 2.1438 3.797 6.0564 6.0343 8.6947 5.7372 6.7654 13.744 19.764 19.277 31.297 6.9679 14.523 18.645 35.871 20.569 37.604 0.92209 0.83066 3.3005 4.8385 5.2854 8.9062 1.9849 4.0678 6.2996 12.248 9.5883 18.177 3.2887 5.9297 9.2117 17.531 13.162 25.781 9.0981 19 15.201 28.236 28.602 43.285 15.595 17.512 18.013 19.625 28.295 24.719 5.0609 2.5074 10.467 5.6195 12.014 6.9157l2.8125 2.3568-2.8125 0.0235c-1.5469 0.0129-4.8835-0.60468-7.4146-1.3725-2.5312-0.76782-6.3891-1.3961-8.5731-1.3961-4.357 0-15.937-3.2509-16.851-4.7308-0.31608-0.51143-2.6021-1.9573-5.0801-3.213-6.3729-3.2294-17.273-12.989-20.84-18.658-1.6622-2.6424-4.0057-6.0124-5.2078-7.4891-1.3884-1.7055-1.9776-3.3403-1.6154-4.4818 0.57381-1.8079-1.4393-5.9026-7.5385-15.333-1.6674-2.5781-6.1922-10.805-10.055-18.281-8.5491-16.546-14.738-28.177-19.954-37.5-2.1636-3.8672-4.2221-8.2162-4.5743-9.6644-0.78295-3.2192-14.916-29.678-18.625-34.867-1.474-2.0625-4.3282-6.2812-6.3427-9.375-2.0144-3.0938-5.4718-8.1078-7.6829-11.142-2.2112-3.0345-4.8386-6.8314-5.8387-8.4375-9.9037-15.905-18.801-28.517-27.557-39.066-10.2-12.33-22.54-25.868-26.94-29.606-2.97-2.519-8.63-7.639-12.57-11.377s-7.54-6.797-7.99-6.797c-0.4504 0-1.8967-0.98294-3.2139-2.1843-2.79-2.545-17.38-11.878-18.57-11.878-0.44398 0-2.2603-1.0782-4.0362-2.3959-2.8111-2.0858-9.2795-5.9666-19.167-11.499-1.5469-0.86558-5.5547-3.1313-8.9062-5.035-3.3516-1.9037-9.6797-4.9191-14.062-6.701-4.3828-1.7819-11.643-4.9589-16.133-7.06-14.473-6.772-62.797-12.554-79.952-9.5667-3.1826 0.55423-8.7052 1.0328-12.272 1.0636-3.5671 0.03074-8.3842 0.3918-10.704 0.80235-23.242 4.1125-33.403 6.519-50.625 11.99-21.904 6.9585-36.568 12.44-46.065 17.219-4.3124 2.17-11.511 5.3115-15.997 6.9809-4.486 1.6695-10.814 4.8622-14.062 7.0951-3.2484 2.2328-8.923 5.7647-12.61 7.8487-9.0098 5.0921-18.913 11.88-27.969 19.173-4.1173 3.3151-9.8251 7.3983-12.684 9.0738-6.5497 3.8387-26.696 24.411-32.275 32.956-2.2749 3.4849-6.0246 8.1425-8.3326 10.35-6.5031 6.2205-11.301 12.957-16.506 23.173-6.1944 12.16-9.9875 18.632-14.511 24.76-2.0459 2.7718-4.8095 8.3475-6.2477 12.605-1.4184 4.1991-3.8833 10.527-5.4774 14.062-1.5941 3.5352-3.765 9.8634-4.8242 14.062-1.0592 4.1991-3.1279 11.643-4.597 16.541-6.2379 20.798-7.9671 70.047-3.7526 106.88 0.50155 4.3828 1.5633 14.389 2.3595 22.236 0.79619 7.8468 2.0307 16.284 2.7433 18.75 0.71263 2.4657 1.5757 7.858 1.918 11.983 0.34227 4.125 1.4844 10.875 2.5381 15s2.2384 10.242 2.6328 13.594c1.0224 8.69 3.2691 18.781 6.4705 29.062 7.9934 25.671 11.151 36.719 12.192 42.656 0.63289 3.6094 1.7168 8.6719 2.4086 11.25 4.3859 16.344 6.9016 39.716 5.2407 48.688-0.56641 3.0595-1.0298 7.3691-1.0298 9.5768 0 3.0491-0.63515 4.7542-2.6424 7.0934-1.4533 1.6937-3.2055 4.4833-3.8938 6.199s-2.2414 3.7682-3.4514 4.561c-6.0137 3.9403-1.1943 8.0261 8.695 7.3713 12.758-0.84471 15.014-1.3552 43.446-9.8305 5.3954-1.6083 10.377-2.7067 11.07-2.4408 0.69297 0.26592 2.9062-0.35638 4.9184-1.3829 2.0121-1.0265 4.5202-1.8664 5.5734-1.8664 2.3122 0 34.828-9.3512 45.972-13.221 4.3828-1.522 13.572-4.6483 20.421-6.9475 6.8487-2.2992 14.442-5.0105 16.875-6.0251 2.4326-1.0146 8.4306-3.3612 13.329-5.2145 12.662-4.7907 24.319-9.7224 28.03-11.859 1.7526-1.0089 5.2395-2.2237 7.7487-2.6996 2.5092-0.47588 8.9995-2.9843 14.423-5.5743 5.4233-2.59 10.084-4.709 10.356-4.709 0.50709 0 8.1986-3.3853 14.911-6.5628 13.723-6.4962 30.687-14.129 34.484-15.515 2.4661-0.90057 4.7022-1.9908 4.9692-2.4228 0.26698-0.43199 4.5673-2.7187 9.5563-5.0815s11.086-5.7437 13.549-7.513c2.4628-1.7693 5.2569-3.2169 6.2093-3.2169 3.2031 0 25.439-12.968 25.458-14.848 0.0134-1.2964 6.3074-4.8395 8.5971-4.8395 1.3165 0 3.3998-0.7841 4.6295-1.7424 1.2297-0.95835 3.5014-2.4081 5.0483-3.2217 1.5469-0.81361 6.1086-4.2532 10.137-7.6436 4.0285-3.3904 9.091-7.0561 11.25-8.146 4.3004-2.171 10.967-6.7988 17.519-12.161 2.3203-1.899 6.9609-4.8214 10.312-6.4942 3.3516-1.6728 7.3969-4.0353 8.9897-5.25 1.5928-1.2146 4.335-2.6947 6.0938-3.289 1.7588-0.59428 5.1102-2.4632 7.4475-4.1531 2.3374-1.6899 7.8217-4.5973 12.188-6.4608 4.3658-1.8635 8.5706-3.7888 9.344-4.2784 0.77344-0.48959 2.8828-1.6934 4.6875-2.6752 1.8047-0.98178 4.0849-2.6737 5.0672-3.7598 0.98225-1.0861 2.3526-1.9748 3.0453-1.9748 0.69264 0 4.5296-1.6698 8.5266-3.7107 8.3995-4.2889 17.633-8.143 23.673-9.8819 4.3708-1.2582 13.637-4.9004 20.156-7.9226 2.0625-0.95616 5.1651-2.0339 6.8946-2.3951 1.7296-0.36113 4.8936-1.4152 7.0312-2.3424 2.1376-0.92719 5.785-1.9677 8.1054-2.3123 2.3203-0.3446 6.1172-1.179 8.4375-1.8541 2.3203-0.67519 9.9141-2.3741 16.875-3.7753s14.047-3.1428 15.747-3.87c5.8756-2.5134 11.407-3.3188 14.675-2.1368 2.4883 0.89976 3.878 0.8139 7.6376-0.47183 4.3326-1.4817 33.724-4.1051 34.729-3.0998 0.23907 0.23908 2.3744-0.14909 4.7452-0.8626 3.5226-1.0602 5.3557-1.0888 10.029-0.15678 3.1449 0.62728 10.359 1.182 16.03 1.2328l10.312 0.0924 2.097 3.104c1.4445 2.1382 1.9234 3.8687 1.539 5.5618-1.17 5.1536-6.4093 15.292-8.7716 16.974-1.3564 0.96587-4.5527 3.7053-7.1028 6.0876s-5.9022 5.003-7.4491 5.8237c-1.5469 0.82071-3.9586 2.4484-5.3594 3.6172s-5.2541 3.0259-8.5629 4.127-6.8034 2.8761-7.7656 3.9444c-0.96226 1.0683-2.8042 2.3711-4.0933 2.8951-9.3519 3.8014-25.94 9.8807-36.797 13.485-7.0898 2.3539-12.891 4.7174-12.891 5.2521 0 0.53475 0.49246 3.6449 1.0944 6.9115 1.51 8.1949 0.12589 12.784-4.6477 15.408-3.7114 2.0408-8.4948 5.2246-12.498 8.3186-5.92 4.5751-8.2407 17.315-3.9048 21.436 3.5807 3.4026 5.8241 6.7176 10.609 15.677 10.793 20.208 13.899 27.145 21.191 47.342 1.2099 3.3507 3.0482 7.1476 4.0851 8.4375s4.0462 6.564 6.6874 11.72c2.6411 5.1562 5.5938 10.495 6.5614 11.863 1.9421 2.747 2.1897 4.6746 0.91634 7.1336-0.46364 0.89535-1.8347 3.6747-3.0469 6.1764-4.9029 10.119-24.157 22.402-36.891 23.535-13.734 1.2221-15.249 6.4394-6.894 23.75 1.0674 2.2117 1.912 4.9538 1.8768 6.0938-0.32993 10.699-0.51176 11.349-3.7214 13.303-5.7248 3.4842-18.222 13.147-19.441 15.032-1.0561 1.6326-0.55214 3.1675 4.0767 12.416 5.1271 10.244 5.2386 10.628 3.8043 13.125-0.81263 1.4148-1.7691 3.7932-2.1254 5.2854-0.35636 1.4922-3.2447 5.4175-6.4186 8.7228-4.1859 4.3592-5.5234 6.3439-4.8701 7.2267 9.1428 12.356 12.883 16.993 17.67 21.912 6.2505 6.422 5.9608 5.455 6.3091 21.058 0.0992 4.4453-5.8718 17.414-9.6877 21.04-1.5274 1.4517-3.3666 3.7676-4.0869 5.1464-1.2692 2.4292-13.064 9.2118-16.02 9.2118-0.71909 0-5.1976 1.2902-9.9522 2.867-7.3686 2.4438-10.029 2.8631-18.02 2.8404-5.1562-0.0146-13.319 0.44007-18.14 1.0104-9.013 1.0664-11.013 0.85094-24.516-2.6411-2.8359-0.73336-6.8438-1.7637-8.9062-2.2897-2.0625-0.52599-5.4375-1.904-7.5-3.0623-4.0561-2.2778-15.35-2.5681-31.276-0.80388l-6.9009 0.76448-5.0509 5.5792c-8.5087 9.3987-14.428 22.294-14.428 31.43 0 17.513-10.079 38.201-27.256 55.946-10.072 10.406-10.692 10.772-12.286 7.2746zm187.93-226.35c1.9932-0.0819 16.807-14.959 16.334-16.404-1.0131-3.0938-10.186-1.5028-11.536 2.0009-0.79525 2.064-2.2744 3.0702-7.0165 4.773-19.069 6.8472-21.418 12.724-4.1338 10.344 2.5781-0.35502 5.4364-0.67629 6.3517-0.71393zm-384.64-18.2c0-0.69068-1.0547-1.7363-2.3438-2.3237-1.8584-0.84675-2.3438-0.81051-2.3438 0.175 0 0.9639 2.443 2.7968 4.4531 3.341 0.12891 0.0349 0.23438-0.50165 0.23438-1.1923zm6.5625-35.289c0-1.178-4.2481-2.2621-6.0916-1.5546-2.7218 1.0444-1.3686 2.4743 2.3416 2.4743 2.0625 0 3.75-0.41384 3.75-0.91964zm38.906-9.8265c0-1.327-0.91463-2.0605-3.2812-2.6311-1.8047-0.43516-4.6069-1.2001-6.2272-1.6999-3.0699-0.94693-15.992 0.47896-17.526 1.934-2.5272 2.3958 10.434 4.2776 14.875 2.1597 2.9261-1.3953 3.2397-1.3667 5.7521 0.52578 3.2318 2.4343 6.4073 2.2913 6.4073-0.2885zm96.562-45.03c0-1.2028-1.4013-2.6169-4.0303-4.0671-2.7806-1.5339-4.8767-3.723-6.76-7.06-3.3728-5.9762-7.8748-9.0526-10.056-6.8715-2.0295 2.0295-0.87256 4.183 2.7552 5.1284 2.7269 0.71056 3.0958 1.1844 3.1316 4.0226 0.0361 2.8586 0.53819 3.488 4.5056 5.6468 2.4558 1.3363 5.176 3.1406 6.0449 4.0096 2.0178 2.0178 4.409 1.5791 4.409-0.80881zm128.44 201.49c-3.0938-1.8634-6.4688-4.1438-7.5-5.0678-2.5561-2.2901-8.5666-5.2253-13.322-6.5058-2.1651-0.58299-5.1767-2.1036-6.6926-3.3791-1.5158-1.2755-3.0461-2.3191-3.4005-2.3191-0.35444 0-3.1638-1.4766-6.243-3.2812-3.796-2.2248-6.7702-3.2812-9.2374-3.2812-4.7366 0-8.013-1.2986-11.911-4.7207-1.741-1.5286-3.6129-2.7793-4.1599-2.7793-0.54698 0-2.1143-0.78519-3.483-1.7449-1.3686-0.95968-4.176-2.2799-6.2385-2.9338-9.3969-2.9792-20.965-13.459-27.229-24.666-1.2988-2.3238-2.9808-4.7392-3.7379-5.3674-1.5059-1.2498-1.9061-4.0717-0.50623-3.569 0.47861 0.17187 4.8028 4.7047 9.6094 10.073 4.8066 5.3682 9.5829 10.181 10.614 10.695 1.0312 0.51389 2.5078 1.2924 3.2812 1.73 1.9108 1.0811 2.5668 1.2941 7.9688 2.5882 2.5781 0.61762 14.162 6.0541 25.742 12.081 11.58 6.027 26.401 13.489 32.935 16.583 7.879 3.7305 13.677 7.2037 17.216 10.312 9.0752 7.9726 6.5633 11.737-3.705 5.553zm-333.04-80.24c-8.0384-4.3242-12.031-8.4818-6.5625-6.8338 6.4891 1.9556 17.973 9.3428 16.992 10.93-0.68137 1.1025-0.99138 0.98072-10.43-4.0965zm395.39-55.72c0-0.73434 2.7251-7.0088 3.8278-8.8136 0.4726-0.77344 2.1094-3.5156 3.6374-6.0938 1.528-2.5781 6.6314-8.4844 11.341-13.125s9.3945-9.5977 10.411-11.016c2.1519-3.002 4.5328-3.3885 4.5328-0.73575 0 2.0307-2.5017 5.1901-13.079 16.518-3.8924 4.1685-8.5468 9.6529-10.343 12.188-6.5558 9.2501-10.328 13.296-10.328 11.078zm-234.86-15.516-3.3628-2.9526-2.9198 2.1587-2.9198 2.1587-1.7187-2.1225c-3.1232-3.8569 1.7005-9.4148 8.1711-9.4148 4.3157 0 11.178 9.4948 8.6727 12-1.6252 1.6252-2.1877 1.4517-5.9226-1.8276zm35.683-15.421c-2.5201-2.5201-0.0702-3.937 8.0644-4.6639 6.6334-0.59278 7.2456-0.49595 8.2057 1.298 1.2281 2.2947 0.0896 3.3469-3.8568 3.5644-1.4 0.0772-4.4099 0.41989-6.6887 0.76162-3.2269 0.48389-4.493 0.27156-5.7246-0.96009zm213.8-7.1729c0.37025-0.64453 2.0293-3.0703 3.6867-5.3906s3.3136-5.1912 3.6805-6.3797c0.36682-1.1885 1.1585-1.9873 1.7593-1.7751 1.7345 0.61274 1.0196 5.903-1.2234 9.0529-2.5515 3.5832-9.7223 7.6595-7.903 4.4925zm-465.56-1.19c0-2.1493 8.9892-5.1124 33.991-11.204 15.964-3.8896 22.246-5.9499 48.212-15.81 10.407-3.9517 19.385-7.1848 19.951-7.1848 2.0317 0 12.719-3.9373 14.139-5.209 0.79714-0.71386 5.2268-3.0055 9.8438-5.0925 4.6169-2.087 9.0919-4.187 9.9444-4.6666 0.8525-0.47967 5.2822-2.324 9.8438-4.0985s17.687-7.4917 29.167-12.705c11.48-5.2132 21.095-9.4785 21.367-9.4785 1.216 0 13.437-6.1185 16.822-8.4221 2.0625-1.4036 6.7031-3.5168 10.312-4.696 8.3774-2.7371 14.667-5.8823 30.938-15.471 7.2188-4.2542 18.398-10.823 24.844-14.597 6.4453-3.774 15.581-9.4966 20.301-12.717 4.7204-3.2203 11.259-7.2053 14.531-8.8556 3.2718-1.6503 9.9088-5.6845 14.749-8.9649 4.8401-3.2804 9.2202-5.9643 9.7336-5.9643 1.0653 0 19.83-11.306 28.508-17.176 14.734-9.9667 33.52-19.894 69.677-36.82 28.497-13.341 35.574-16.271 45.184-18.707 5.0384-1.2772 13.914-4.0394 19.723-6.1383 19.242-6.9523 29.026-9.2311 42.437-9.8844 6.7031-0.32652 12.862-0.93842 13.686-1.3598 2.0362-1.041 6.939 0.37574 6.939 2.0051 0 0.72392-1.0547 1.6117-2.3438 1.9728-3.5251 0.98749-15.508 3.2971-23.438 4.5174-15.877 2.4435-32.688 6.6927-53.438 13.507-18.185 5.9722-17.789 5.8192-34.219 13.226-8.25 3.7193-17.32 7.4965-20.156 8.3937-2.8359 0.89726-6.6328 2.5854-8.4375 3.7514s-7.7109 4.559-13.125 7.5399-12.797 7.1002-16.406 9.154c-3.6094 2.0538-8.6719 4.88-11.25 6.2803-6.527 3.5452-49.029 30.343-56.148 35.402-1.6028 1.1389-5.6563 3.4942-9.0079 5.234-9.419 4.8894-22.569 12.199-26.719 14.851-8.5959 5.4948-27.053 16.034-38.438 21.948-6.7031 3.4822-14.93 7.7959-18.281 9.5859-8.8285 4.7151-12.809 6.6451-29.531 14.32-8.25 3.7863-17.061 8.091-19.581 9.566-7.7194 4.5194-14.951 7.9008-18.247 8.5318-1.7271 0.33067-4.4332 1.6891-6.0134 3.0188-1.8491 1.5559-3.5567 2.2388-4.7909 1.9161-1.9198-0.50203-15.64 5.0601-18.418 7.4664-0.78358 0.67883-4.5805 2.5343-8.4375 4.1232s-10.177 4.3041-14.044 6.0336c-11.81 5.282-17.008 7.2614-25.312 9.6393-4.3828 1.255-14.719 4.5395-22.969 7.299-8.25 2.7594-20.695 6.1166-27.656 7.4605-16.666 3.2173-27.719 5.9978-32.405 8.1519-4.6232 2.1249-6.0321 2.201-6.0321 0.32557zm234.49-5.1347c-6.5356-3.6026-7.6182-4.5518-7.6182-6.6787 0-3.3477 7.1613-1.4937 12.891 3.3373 6.6202 5.5822 2.9791 7.8898-5.2724 3.3414zm-233.55-20.16c-1.4416-1.737 0.23406-4.2188 2.8483-4.2188 3.3958 0 43.621-11.67 45.506-13.203 0.55555-0.45157 3.7593-1.6702 7.1195-2.708s8.8118-3.1112 12.115-4.6076c3.303-1.4963 9.8024-3.8691 14.443-5.2729s8.8957-2.9194 9.4558-3.368c1.6464-1.3188 23.748-10.216 25.377-10.216 2.7973 0-0.58754 2.7362-7.5592 6.1108-3.6569 1.7701-8.9692 4.4758-11.805 6.0127-6.3322 3.4316-28.891 12.49-43.125 17.317-3.8672 1.3114-9.5476 3.275-12.623 4.3635-3.0756 1.0885-9.1928 2.9476-13.594 4.1312-4.401 1.1836-11.7 3.2574-16.219 4.6083-9.5586 2.8571-10.379 2.9293-11.939 1.0499zm459.7-7.527c-0.60876-1.5864 3.1549-9.4322 9.6932-20.207 5.3876-8.8783 4.0528-12.997-4.2241-13.034-7.1423-0.0318-8.5571-2.9698-2.7509-5.7127 2.1914-1.0353 5.1756-2.5348 6.6316-3.3322 3.2881-1.8009 6.619-1.0636 9.5674 2.1177 1.4805 1.5975 2.7961 2.2001 3.9816 1.8238 1.1231-0.35646 2.3916 0.12444 3.4692 1.3152 1.906 2.1061 1.341 3.2024-7.0181 13.618-7.9453 9.9002-11.268 14.533-13.849 19.311-2.8968 5.3626-4.545 6.5908-5.5012 4.0992zm-458.54-22.24c0.50285-1.5501 6.4478-4.3415 11.334-5.3219 2.1509-0.43153 8.7622-2.5741 14.692-4.7613 5.9297-2.1872 13.312-4.8329 16.406-5.8794 3.0938-1.0464 6.7485-2.473 8.1216-3.1702 1.3732-0.69715 6.2247-2.7168 10.781-4.4882 4.5566-1.7714 10.816-4.4545 13.91-5.9626 7.6922-3.7497 21.054-9.2874 23.906-9.9075 1.2891-0.28031 5.2032-2.2356 8.6981-4.3451s9.6121-5.2414 13.594-6.9597c3.9817-1.7184 9.8015-4.5854 12.933-6.3711 3.1315-1.7858 7.6568-3.9158 10.056-4.7334 2.3995-0.8176 5.7437-2.518 7.4314-3.7786 1.6878-1.2606 4.6448-2.7969 6.5712-3.414 1.9264-0.61706 3.7368-1.501 4.0232-1.9643 0.28632-0.46327 10.523-5.7926 22.747-11.843 12.225-6.0503 23.613-12.18 25.306-13.621 1.6937-1.441 3.8031-2.625 4.6875-2.6312 0.8844-0.007 3.5064-1.1199 5.8268-2.4749 12.402-7.2426 17.513-10.105 40.118-22.469 13.557-7.4153 24.957-13.482 25.333-13.482 0.37632 0 2.1514-1.2059 3.9447-2.6797 3.4359-2.824 9.1737-5.9661 13.104-7.1763 1.2891-0.39688 3.811-1.9276 5.6042-3.4015 3.3444-2.7489 6.0232-3.4071 7.0572-1.734 1.5132 2.4483-1.4729 5.0227-15.269 13.164-8.1048 4.7826-17.9 10.6-21.767 12.927-3.8672 2.3271-10.406 5.9962-14.531 8.1536s-9.6094 5.2358-12.188 6.841c-2.5781 1.6051-8.3716 4.8287-12.874 7.1636-4.5028 2.3349-10.409 5.6647-13.125 7.3995-2.716 1.7349-11.899 6.7453-20.407 11.134-8.5078 4.389-20.109 10.396-25.781 13.349-15.313 7.9728-16.044 8.342-26.759 13.52-5.4364 2.6272-10.148 4.7766-10.47 4.7766-0.32226 0-6.2897 2.736-13.261 6.08-17.823 8.5494-22.839 10.768-28.728 12.705-2.8359 0.93286-9.7969 3.6456-15.469 6.0283-5.6719 2.3827-15.164 6.237-21.094 8.565-5.9297 2.3281-14.156 5.6898-18.281 7.4704-4.125 1.7807-10.453 4.0352-14.062 5.0102-3.6094 0.9749-7.8281 2.2359-9.375 2.8023-14.857 5.4394-23.399 7.4974-22.745 5.4795zm429.33-25.799c-1.8354-6.1261-3.0859-7.2014-6.9076-5.9401-3.2983 1.0886-6.799 0.5767-5.9086-0.86394 0.26045-0.42142 3.1621-1.6609 6.4482-2.7544 3.286-1.0935 6.6804-2.7681 7.5431-3.7213 0.86735-0.95842 2.3302-1.5339 3.2725-1.2875 1.1933 0.31205 4.3387-2.0645 10.494-7.9288 13.603-12.961 25.821-19.924 38.321-21.838 3.8672-0.59244 7.5915-1.5341 8.2763-2.0925 0.95069-0.77528 1.798-0.30885 3.5836 1.9727 2.5199 3.2199 5.5243 3.8375 8.8349 1.8162 2.3953-1.4625 4.6177 1.0025 4.6177 5.1217 0 3.0932-6.1351 7.5971-11.795 8.6589-1.8169 0.34086-3.5374 1.2293-3.8233 1.9743-0.28587 0.745-1.3208 1.3545-2.2997 1.3545-2.5477 0-13.265 10.69-12.854 12.822 0.2554 1.3262 1.0511 1.6379 3.6167 1.4169 7.5772-0.65281 13.887 7.2045 6.7628 8.4207-2.1115 0.36046-5.116 1.3157-6.6766 2.1227-2.0363 1.053-5.5659 1.4674-12.5 1.4674-5.3142 0-11.084 0.40788-12.823 0.9064-3.8053 1.0914-6.3825-0.0257-7.6301-3.3072-1.2774-3.3598-4.293-2.8692-8.9932 1.4632-5.3482 4.9298-8.1286 4.9927-9.5596 0.21637zm31.121-5.8513c1.2825-1.2421-0.0963-3.7401-2.0645-3.7401-5.1251 0-9.796 3.6188-6.4974 5.034 1.5136 0.64935 7.4877-0.25351 8.562-1.294zm6.2623-24.227c5.1859-2.771 6.9255-4.8254 4.0859-4.8254-1.9431 0-10.707 5.4515-10.707 6.6602 0 1.3621 1.3254 0.9948 6.6212-1.8349zm-323.57 29.485c0.59992-0.72284 2.1858-1.5891 3.5242-1.925 1.3384-0.33591 3.7867-1.6429 5.4407-2.9045s3.4056-2.2937 3.8924-2.2937c0.48683 0 2.5401-0.84375 4.5629-1.875 2.0227-1.0312 4.3669-1.875 5.2092-1.875 0.84232 0 2.3072-0.8572 3.2554-1.9049 0.94815-1.0477 3.5161-2.3562 5.7065-2.9077 2.1904-0.55156 4.1918-1.548 4.4475-2.2143 0.25568-0.6663 2.2883-2.0632 4.5169-3.1042 11.694-5.4623 16.644-7.6814 17.134-7.6814 0.29909 0 3.6712-1.8984 7.4935-4.2188 3.8223-2.3203 7.256-4.2188 7.6304-4.2188 0.76782 0 41.255-21.697 46.326-24.826 1.8047-1.1136 6.4453-3.6135 10.312-5.5553 3.8672-1.9418 8.9297-4.7461 11.25-6.2319 2.3203-1.4857 6.1172-3.7777 8.4375-5.0933s7.3828-4.2737 11.25-6.5735 8.5078-4.929 10.312-5.8426c1.8047-0.91359 5.2119-3.0015 7.5716-4.6398 5.727-3.9762 18.708-10.896 19.31-10.293 0.26399 0.264-0.93031 1.2023-2.654 2.0851-1.7237 0.88282-5.09 3.2334-7.4807 5.2236-2.3907 1.9901-5.9766 4.3575-7.9688 5.2609-1.9921 0.90334-5.9424 3.3671-8.7783 5.4751s-8.7422 5.8695-13.125 8.3589-8.8125 5.2392-9.8438 6.1105c-2.0977 1.7723-21.789 12.639-31.875 17.59-3.6094 1.7718-7.1953 3.777-7.9688 4.4561-2.24 1.95-68.73 35.11-70.43 35.11-0.84323 0-2.0448 0.61647-2.6701 1.3699-0.62532 0.75347-2.0481 1.6489-3.1617 1.9899-2.3772 0.72786-22.027 9.8651-27.054 12.58-4.1856 2.2606-6.1942 2.5056-4.5781 0.55826zm-148.05-2.38c0-2.0042 13.418-9.4314 17.039-9.4314 0.71163 0 2.126-0.57746 3.1431-1.2832 2.8778-1.997 28.132-11.842 30.377-11.842 1.102 0 4.085-1.0547 6.6288-2.3438s5.1344-2.3438 5.7568-2.3438c0.62238 0 4.7497-1.7258 9.1718-3.8352s9.3058-4.3794 10.853-5.0444c1.5469-0.66507 7.2422-3.3206 12.656-5.9013 5.4141-2.5807 13.852-6.4861 18.75-8.6788 4.8984-2.1927 9.75-4.7202 10.781-5.6168 1.0312-0.89653 3.5625-2.1679 5.625-2.8252 2.0625-0.65735 5.0156-2.1547 6.5625-3.3274s12.305-6.7694 23.906-12.437c11.602-5.6678 23.625-11.864 26.719-13.768 3.0938-1.9049 7.5049-4.282 9.8025-5.2825s6.5164-3.4044 9.375-5.3421 7.9397-4.872 11.291-6.5207c3.3516-1.6487 8.8359-4.6588 12.188-6.6891 3.3516-2.0303 6.7847-3.7144 7.6292-3.7424 0.84448-0.028 3.792-1.6032 6.55-3.5003 2.758-1.8972 9.2859-5.6494 14.506-8.3382 5.2206-2.6888 11.132-5.9202 13.138-7.1809 4.4069-2.7708 22.265-13.047 29.489-16.969 5.1794-2.812 8.3754-2.9457 8.3754-0.3504 0 1.2286-14.213 10.399-36.562 23.591-5.9297 3.5-13.102 7.7462-15.938 9.4358-5.2445 3.1247-20.67 11.696-25.781 14.324-1.5469 0.79567-4.0781 2.3896-5.625 3.5421s-5.7656 3.5227-9.375 5.2672-10.781 5.6388-15.938 8.6542c-10.874 6.3587-28.495 15.524-56.25 29.255-10.828 5.3572-22.94 11.432-26.916 13.5-3.9754 2.0678-12.095 5.6409-18.044 7.9401-5.9489 2.2992-12.83 5.201-15.292 6.4485-2.4617 1.2475-6.998 3.1179-10.081 4.1566-3.0826 1.0386-8.5579 3.1422-12.167 4.6745-13.862 5.8848-17.215 7.1666-28.125 10.752-6.1875 2.0331-15.162 5.5623-19.943 7.8426-11.163 5.3244-14.276 6.0243-14.276 3.2098zm-10.078-26.927c-4.4512-1.7961-1.098-4.8505 8.9062-8.1126 17.016-5.5483 26.693-9.0224 27.883-10.01 0.62563-0.51922 5.7348-2.8664 11.354-5.2159 5.619-2.3495 13.255-5.9354 16.969-7.9686s7.3158-3.6968 8.0041-3.6968c0.68828 0 4.8214-1.4943 9.1848-3.3207s10.676-4.3715 14.027-5.6558c7.0989-2.7202 20.587-9.2448 25.312-12.244 1.8047-1.1456 5.7514-2.7886 8.7705-3.6512s6.9422-2.5543 8.718-3.7594 4.79-2.6908 6.6982-3.3015c1.9082-0.61076 4.3133-1.8529 5.3445-2.7603 1.0312-0.90743 3.2344-2.3368 4.896-3.1765 1.6616-0.83963 4.4937-2.526 6.2936-3.7474 1.7999-1.2215 7.0352-3.7268 11.634-5.5674 4.5987-1.8406 9.8088-4.3169 11.578-5.5028 1.7692-1.186 6.3542-3.5708 10.189-5.2996 8.231-3.7108 9.6902-4.4483 21.972-11.104 5.1562-2.7944 11.304-5.4527 13.661-5.9074 4.3303-0.83519 9.2722-3.0921 25.932-11.843 13.588-7.1372 21.24-11.992 22.198-14.084 0.46891-1.0237 2.5151-2.8867 4.5471-4.1399s5.2342-3.2209 7.1162-4.3726c3.865-2.3653 6.7029-2.7343 6.7029-0.87155 0 1.9017-25.979 18.622-40.23 25.892-2.0715 1.0568-7.1725 4.2408-11.335 7.0754-4.163 2.8347-7.9837 5.154-8.4904 5.154-0.50676 0-2.4944 0.99473-4.4169 2.2105-15.164 9.5898-36.52 21.331-42.006 23.094-2.0226 0.65017-4.3102 1.7085-5.0837 2.3518-1.8766 1.5608-26.229 13.72-37.969 18.957-18.978 8.4664-30.424 13.387-31.14 13.386-0.40432-0.00019-3.2664 1.2244-6.3601 2.7213-3.0938 1.4969-8.7891 3.8673-12.656 5.2676-3.8672 1.4003-12.727 5.3027-19.688 8.672-17.798 8.6147-32.254 15.059-39.375 17.553-10.96 3.8382-12.633 4.4637-14.491 5.4166-1.5557 0.79791-23.306 8.324-23.434 8.1086-0.0242-0.0407-0.57125-0.2868-1.2158-0.54687zm442.27-17.5c0-1.9926 8.1247-7.2774 13.278-8.6367 2.5978-0.68529 5.4191-1.8455 6.2696-2.5784 0.85049-0.73281 3.8667-2.4179 6.7026-3.7447s5.8533-3.2421 6.7052-4.2563c0.85195-1.0142 4.6488-3.6321 8.4375-5.8176s8.9979-5.2345 11.576-6.7756c6.4378-3.8482 23.649-5.0604 25.915-1.8252 0.88867 1.2687 2.6211 2.0369 5.0418 2.2354 2.7305 0.22399 3.9639 0.85925 4.751 2.447 0.58466 1.1795 1.9654 3.1051 3.0684 4.2792 8.1298 8.6538-6.86 18.612-21.901 14.55-4.2891-1.1585-5.3942-1.1939-13.125-0.42048-16.153 1.6159-22.027 2.446-26.689 3.771-2.8194 0.80138-6.1944 1.4589-7.5 1.4612-1.3056 0.002-6.7553 1.4788-12.11 3.2812-11.262 3.7906-10.42 3.6265-10.42 2.0298zm-450.42-15c-3.1235-2.2839-0.93548-3.8386 9.9314-7.0566 5.8512-1.7327 14.224-4.7594 18.607-6.7261 6.9703-3.1276 22.103-8.746 29.062-10.79 1.2891-0.37863 4.4531-1.6098 7.0312-2.736s7.2188-2.9152 10.312-3.9757c8.1614-2.7975 38.355-16.278 42.656-19.044 3.5948-2.3122 10.379-5.6087 11.542-5.6087 0.71067 0 2.0399-0.82632 2.9539-1.8363 0.91399-1.01 3.827-2.5355 6.4734-3.3902 2.6464-0.85464 6.7101-2.7262 9.0304-4.1591 2.3203-1.4328 9.4922-5.2049 15.938-8.3824 6.4453-3.1775 12.984-6.4384 14.531-7.2465 9.161-4.7858 22.242-11.322 25.656-12.819 2.1818-0.95686 5.1343-2.7221 6.5612-3.9227s4.8286-3.0319 7.5593-4.0695c2.7308-1.0376 5.656-2.4886 6.5004-3.2244 0.84449-0.7358 3.1297-1.8498 5.0782-2.4755 1.9485-0.62572 5.5418-2.483 7.9851-4.1272s9.1427-5.3916 14.888-8.3276c5.7449-2.936 13.186-7.2543 16.537-9.5963 3.3503-2.342 7.5178-4.8542 9.2611-5.5826 1.7433-0.72841 5.3832-2.814 8.0885-4.6345 4.9432-3.3265 7.0467-3.55 8.0795-0.85859 0.72927 1.9004-0.70619 3.5385-4.4279 5.0529-1.6587 0.67495-5.6283 3.0406-8.8214 5.2571s-6.5348 4.0299-7.4262 4.0299c-0.89133 0-2.2866 0.57142-3.1007 1.2698-0.81404 0.69839-3.8004 2.4328-6.6363 3.8542-6.3379 3.1766-5.7748 2.8436-13.837 8.1832-3.6545 2.4205-8.8918 5.5337-11.638 6.9183-2.7466 1.3845-8.8543 4.783-13.573 7.5522-4.7184 2.7692-8.9858 5.0349-9.4829 5.0349-0.49721 0-1.9402 0.81511-3.2068 1.8114-5.1976 4.0884-60.966 31.897-91.374 45.562-7.6561 3.4408-17.965 8.087-22.908 10.325-4.9432 2.238-10.849 4.794-13.125 5.6801-2.2756 0.88604-10.044 4.1191-17.262 7.1846-7.2188 3.0655-16.711 6.7727-21.094 8.2382-8.9035 2.9772-17.815 6.2578-24.844 9.1457-2.5781 1.0593-7.6406 2.8557-11.25 3.9922-3.6094 1.1364-6.9965 2.229-7.5269 2.4279-0.53043 0.1989-1.7591-0.21948-2.7304-0.92974zm-6.1489-35.636c0-3.0111 4.2967-5.3075 20.625-11.023 24.595-8.6093 28.651-10.143 34.219-12.94 8.5706-4.3058 17.953-8.4036 26.25-11.464 6.452-2.3803 20.007-8.4144 24.998-11.128 0.85824-0.46664 7.1864-3.3715 14.062-6.4552 6.8761-3.0837 18.523-8.7725 25.882-12.642 7.3589-3.8693 14.32-7.3186 15.469-7.6652 1.1489-0.34663 4.2479-1.8477 6.8867-3.3357s6.5717-3.3314 8.7398-4.0963c2.1681-0.76496 7.3428-3.3033 11.499-5.6408 4.1566-2.3375 8.6612-4.5163 10.01-4.8418 1.3491-0.32554 3.5076-1.2957 4.7966-2.1559 1.2891-0.86019 13.523-7.1804 27.188-14.045 13.664-6.8646 29.026-14.763 34.138-17.552 9.1795-5.008 11.727-5.3925 10.48-1.5822-0.66419 2.0303-8.8654 6.9739-30.087 18.136-5.1562 2.7121-9.7969 5.2474-10.312 5.634-1.3387 1.0039-43.397 22.058-59.531 29.802-7.4766 3.5882-18.445 8.8636-24.375 11.723-5.9297 2.8596-14.067 6.4999-18.082 8.0896-4.0155 1.5897-9.7108 4.0991-12.656 5.5763-2.9454 1.4772-6.41 3.0003-7.699 3.3846-1.2891 0.38427-5.9297 2.2976-10.312 4.2518-10.841 4.8337-26.535 11.236-27.539 11.233-1.335-0.003-12.098 4.8953-14.78 6.7266-2.2591 1.5425-12.01 5.7622-26.587 11.505-15.908 6.2673-22.923 8.9065-25.181 9.4731-1.3714 0.34419-2.7252 1.0009-3.0086 1.4594-0.82245 1.3308-5.0921 0.97247-5.0921-0.42731zm353.85-33.517c-0.78851-1.2758 0.70815-2.6677 6.2603-5.8221 6.7117-3.8132 8.0081-0.59394 1.6234 4.0311-4.0421 2.9281-6.7944 3.5533-7.8837 1.7909zm-356.35-5.139c-1.1688-3.0458 1.3451-4.1646 33.439-14.882 9.0234-3.0132 18.727-6.8072 21.562-8.4311 2.8359-1.6238 6.6328-3.5231 8.4375-4.2207 1.8047-0.69753 6.4453-2.8841 10.312-4.859 3.8672-1.975 11.883-5.7321 17.812-8.3492 5.9297-2.6171 12.469-5.5487 14.531-6.5148 2.0625-0.96603 6.2812-2.7055 9.375-3.8654s6.8175-3.0883 8.2751-4.2853c1.4575-1.197 3.0391-2.1763 3.5145-2.1763 1.0132 0 53.589-25.509 58.992-28.622 1.2891-0.74272 3.2413-1.3566 4.3383-1.3642 1.097-0.007 2.5062-0.63029 3.1315-1.3838 0.62532-0.75347 2.0481-1.6544 3.1617-2.0021 1.1136-0.34768 5.1888-2.4162 9.056-4.5967s8.0859-4.27 9.375-4.6433c1.2891-0.37331 8.5925-3.8357 16.23-7.6942 16.052-8.11 23.895-11.016 25.696-9.5214 1.8853 1.5646 1.4414 2.5014-2.0249 4.2735-1.773 0.9064-7.5738 4.0181-12.891 6.9149-5.3169 2.8968-10.703 5.5895-11.969 5.9838-1.2664 0.39434-12.48 5.8988-24.919 12.232-12.439 6.3334-24.477 12.016-26.751 12.629-2.2744 0.61245-5.2715 1.9226-6.6601 2.9113-1.3886 0.98879-4.3392 2.438-6.5569 3.2204-2.2176 0.78243-6.9916 3.0358-10.609 5.0075-3.6172 1.9717-8.2642 4.1155-10.327 4.7641-2.0625 0.64859-5.6484 2.1639-7.9688 3.3673-5.6989 2.9557-22.406 10.304-25.312 11.133-1.2891 0.36777-4.6641 1.7454-7.5 3.0613-12.006 5.571-16.806 7.7203-23.723 10.621-4.0244 1.6878-9.1319 4.2197-11.35 5.6264-2.2182 1.4067-5.0427 2.8701-6.2767 3.2519-1.234 0.38182-3.9311 1.665-5.9936 2.8516s-7.3359 3.6838-11.719 5.5494c-4.3828 1.8656-9.0885 4.005-10.457 4.7542-1.3686 0.74923-3.0595 1.3622-3.7575 1.3622-0.69798 0-3.2503 1.0547-5.6718 2.3438s-5.1304 2.3438-6.0197 2.3438c-2.071 0-7.5539 1.6874-10.967 3.375-3.521 1.7412-7.1134 1.6646-7.816-0.16648zm342.34-23.842c-0.32165-0.52043 0.7563-1.6806 2.3954-2.5781 1.6391-0.89754 4.4581-2.602 6.2644-3.7876 5.0523-3.3163 4.8974-1.5549-0.27049 3.0758-4.5688 4.0938-7.2441 5.143-8.3893 3.29zm138.63-1.3975c-0.96832-2.5234 0.42169-4.1025 6.1617-7 10.098-5.0975 32.287-13.39 37.093-13.863 2.5781-0.2535 5.3203-0.95316 6.0938-1.5548 2.8403-2.2094 8.2205-4.0911 18.75-6.5575 5.9297-1.389 12.68-2.9889 15-3.5552 8.1443-1.988 9.7672-1.9697 11.669 0.13148 2.5424 2.8094 1.6274 3.2525-12.606 6.1046-6.9609 1.3948-17.086 3.9436-22.5 5.6638-5.4141 1.7203-11.953 3.6117-14.531 4.2031-2.5781 0.59141-7.2188 2.1411-10.312 3.4438-3.0938 1.3027-8.7891 3.5574-12.656 5.0104-8.7047 3.2707-14.904 6.1298-17.289 7.9728-2.3195 1.793-4.1845 1.7932-4.8724 0.00052zm-482.2-8.8984c-2.7016-1.6697 4.7207-7.5912 13.696-10.927 1.6102-0.59838 7.4785-3.305 13.041-6.0148 9.1555-4.4603 10.378-4.8266 12.916-3.8688 2.4932 0.94109 3.2623 0.74802 6.9593-1.7471 2.286-1.5428 6.7579-3.8692 9.9376-5.1697 3.1797-1.3006 8.7344-3.8038 12.344-5.5628 3.6094-1.759 10.148-4.723 14.531-6.5867 4.3828-1.8637 9.0234-4.0918 10.312-4.9514 4.4852-2.9908 35.242-18.139 48.281-23.779 7.2188-3.1224 15.445-7.066 18.281-8.7634 2.8359-1.6975 6.8438-3.5999 8.9062-4.2276 2.0625-0.6277 4.6305-1.942 5.7066-2.9207 1.0761-0.97871 5.7168-3.2872 10.312-5.13 4.5957-1.8428 10.254-4.1921 12.575-5.2208 2.3203-1.0286 5.0625-2.2246 6.0938-2.6576 1.0312-0.43309 4.6172-1.9385 7.9688-3.3454s10.017-4.3895 14.812-6.6282c9.3713-4.3752 14.612-5.2791 14.085-2.4296-0.28981 1.5686-14.687 9.4303-17.496 9.5541-0.69052 0.0305-9.9718 4.3152-20.625 9.5217s-24.221 11.786-30.151 14.621c-5.9297 2.8351-13.734 6.5723-17.344 8.3049-3.6094 1.7326-9.9375 4.5982-14.062 6.3681-4.125 1.7699-15.516 7.0123-25.312 11.65-9.7969 4.6376-22.875 10.616-29.062 13.286-6.1875 2.6697-13.918 6.1276-17.178 7.6842-3.2605 1.5567-8.1324 3.5887-10.826 4.5155-2.694 0.92687-6.654 2.581-8.8001 3.6758s-4.3767 1.9906-4.957 1.9906c-0.58029 0-3.6557 1.2279-6.8342 2.7287s-8.0995 3.665-10.935 4.8093c-12.655 5.1066-18.145 7.5678-20.47 9.1773-3.4297 2.3742-5.2637 2.933-6.7045 2.0426zm471.59-11.682c-2.595-3.1268 13.826-13.927 27.15-17.857 1.2891-0.38019 2.9766-1.2397 3.75-1.91 5.7634-4.9949 51.579-20.198 56.326-18.691 4.8728 1.5466 3.7641 6.9946-1.4275 7.0143-4.5248 0.0172-37.537 9.0646-42.711 11.706-2.3203 1.1843-5.9062 2.6743-7.9688 3.3111-2.0625 0.6368-8.0079 3.6341-13.212 6.6607-5.204 3.0266-9.875 5.5029-10.38 5.5029-0.50488 0-2.5751 1.2539-4.6006 2.7864-4.1792 3.1622-5.3254 3.4066-6.9265 1.4773zm-143.03-1.4923c-0.86534-1.4002 1.0134-3.3286 4.5096-4.6288 1.6587-0.61687 4.1168-1.7058 5.4624-2.4199 2.4545-1.3025 3.6472-0.99507 3.6472 0.94008 0 2.095-12.605 7.7489-13.619 6.1086zm-16.426-24.408c-1.6074-1.0477 2.948-5.3527 8.4823-8.016 1.8047-0.86847 3.8325-2.3567 4.5063-3.3072 1.2292-1.734 3.9312-2.396 3.9312-0.96319 0 1.2277-9.9054 9.7794-14.576 12.584-0.54024 0.3244-1.5949 0.19048-2.3438-0.29761zm-310.26-1.3207c-2.0342-2.451-0.41527-3.8105 9.977-8.378 15.323-6.7344 25.655-11.824 30.125-14.841 2.2102-1.4912 6.0071-3.3878 8.4375-4.2146 2.4304-0.82676 6.5104-2.735 9.0665-4.2405 6.42-3.7812 12.94-6.2783 20.634-7.9024 3.5923-0.75829 7.6001-2.1121 8.9062-3.0085 1.3061-0.89638 6.1717-3.4066 10.812-5.5783 4.6406-2.1717 12.234-5.8468 16.875-8.1669 4.6406-2.3201 9.4085-4.2031 10.595-4.1845 1.1868 0.0186 5.1946-1.4754 8.9062-3.32 7.9376-3.9449 8.9536-4.461 11.436-5.8094 5.7084-3.1007 18.396-8.6493 19.778-8.6493 0.88411 0 2.9902-1.0547 4.6803-2.3438 1.69-1.2891 3.6744-2.3438 4.4096-2.3438 0.73525 0 3.6111-1.1983 6.3907-2.6629s8.2179-4.0738 12.085-5.7981c3.8672-1.7243 11.327-5.1997 16.578-7.7229 9.1641-4.4038 13.324-5.2461 14.111-2.8571 0.58932 1.7905-40.312 22.726-56.47 28.905-3.0938 1.183-9.8438 4.2956-15 6.9169s-10.076 4.7696-10.932 4.7741c-1.5937 0.008-16.474 6.2364-30.878 12.924-4.4335 2.0584-9.0741 4.0586-10.312 4.445-1.2384 0.38636-4.7828 1.8897-7.8766 3.3408s-10.688 4.8153-16.875 7.4762c-6.1875 2.6608-15.555 6.6906-20.816 8.955-5.2611 2.2644-10.372 4.1172-11.358 4.1172-0.98573 0-2.7984 0.77415-4.028 1.7203-1.2297 0.94619-4.5561 2.9123-7.3921 4.3691-2.8359 1.4568-5.7891 3.0135-6.5625 3.4592-0.77344 0.44576-3.3047 1.6991-5.625 2.7852s-7.0345 3.6068-10.476 5.6017c-7.0111 4.0639-7.5693 4.1994-9.2015 2.2326zm458.72-4.8269c-1.1663-3.0393 4.1611-6.949 18.46-13.548 17.629-8.1355 60.676-21.251 63.967-19.49 4.7822 2.5594 0.81886 4.8842-15.865 9.3059-5.845 1.5491-11.782 3.2862-13.193 3.8601-1.4112 0.57395-3.8315 1.5665-5.3783 2.2057-1.5469 0.6392-5.1328 1.8704-7.9688 2.736-2.8359 0.86562-6.3487 2.2247-7.8061 3.0202-1.4574 0.79549-6.4384 2.6439-11.069 4.1076-4.6304 1.4636-10.681 4.1629-13.446 5.9984-5.628 3.7356-6.8498 4.0218-7.701 1.8035zm-167-19.64c0.1667-0.82308 1.8539-2.0282 3.7493-2.6782 1.8954-0.6499 5.4482-2.5077 7.8951-4.1285 4.8426-3.2076 6.94-3.6925 6.94-1.6044 0 1.5512-3.1149 3.8414-10.061 7.397-5.6263 2.88-8.9823 3.2793-8.5235 1.0141zm-291.6-4.0491c-3.4519-2.1334 2.6313-7.8123 14.144-13.204 3.236-1.5155 7.7756-3.8231 10.088-5.128 2.3123-1.3049 4.8922-2.3725 5.7329-2.3725 0.84079 0 2.5348-0.7727 3.7645-1.7171 5.4312-4.1711 17.459-9.5329 21.385-9.5329 1.423 0 4.4466-1.0419 6.7192-2.3154 9.0348-5.0628 61.2-30.6 69.885-34.211 5.0858-2.1149 10.302-4.4823 11.591-5.2608 2.5814-1.559 1.9578-1.2674 22.5-10.523 13.717-6.1805 33.308-14.188 38.405-15.697 1.2714-0.37643 5.0733-2.0704 8.4487-3.7645 7.822-3.9256 11.271-4.8496 11.271-3.0196 0 2.5059-9.8478 8.6048-22.969 14.225-4.125 1.7668-15.516 6.8808-25.312 11.364-17.123 7.8364-21.615 9.7835-31.875 13.816-2.5781 1.0134-5.3614 2.436-6.185 3.1613-0.82359 0.72534-5.0423 2.7604-9.375 4.5224-4.3326 1.762-10.62 4.5454-13.971 6.1853-13.354 6.5341-34.601 16.277-41.25 18.916-7.0003 2.7781-29.197 13.128-31.875 14.863-3.7457 2.4266-11.556 5.7148-14.733 6.2022-3.9428 0.60502-14.398 6.405-23.242 12.893-1.1407 0.83686-2.3789 1.0717-3.1472 0.59681zm442.52-6.7514c0.84173-5.9524 76.168-34.596 80.249-30.516 2.8862 2.8862-0.80572 5.3125-8.0836 5.3125-1.3461 0-4.5629 1.0077-7.1484 2.2393s-6.5994 2.7541-8.9197 3.3834c-6.8477 1.8571-15.011 4.8182-22.176 8.0442-3.689 1.6609-8.1187 3.3186-9.8438 3.6839-1.725 0.36522-4.613 1.5661-6.4177 2.6686-9.3933 5.7387-18.1 8.2942-17.66 5.1836zm-172.07-16.576c-0.7685-1.2434 0.62259-2.65 4.6291-4.6806 5.4842-2.7796 7.4087-1.2945 3.2983 2.5452-2.9095 2.7179-6.9027 3.7936-7.9274 2.1355zm-265.26-9.9336c-0.8979-2.3399 15.69-14.616 17.417-12.89 1.2698 1.2698 0.52091 2.2026-6.888 8.5793-6.4667 5.5658-9.5611 6.8326-10.529 4.3106zm424.41-2.8674c-1.499-3.9065 25.07-16.457 42.769-20.204 2.8359-0.60029 6.7164-1.9 8.6232-2.8881 1.9068-0.98819 4.1153-1.7967 4.9077-1.7967 0.79239 0 5.0676-1.051 9.5004-2.3356 8.5241-2.4702 12.1-2.0876 11.468 1.227-0.22207 1.1646-2.0154 1.864-6.8534 2.6727-3.604 0.60244-7.8183 1.76-9.3652 2.5724-1.5469 0.81235-4.0004 1.4796-5.4523 1.4828-1.4519 0.003-3.4863 0.45885-4.521 1.0126s-6.1749 2.2904-11.423 3.8593c-5.2478 1.5689-11.018 3.6396-12.823 4.6016-1.8047 0.96199-6.819 3.2493-11.143 5.0829-4.3239 1.8336-8.742 3.9504-9.818 4.7041-2.5004 1.7513-5.2001 1.7554-5.8703 0.008zm-387.54-15.28c0.0143-2.8846 3.947-6.6878 7.7553-7.5 2.2806-0.48642 6.4686-2.4256 9.3066-4.3094s5.4608-3.425 5.8286-3.425c0.36775 0 2.0116-1.0057 3.653-2.2349s4.039-2.5522 5.3281-2.94c3.0252-0.90996 12.167-5.766 14.032-7.4534 0.79248-0.71719 4.1822-2.5341 7.5327-4.0376 11.807-5.2983 28.191-13.292 47.811-23.327 31.965-16.349 50.959-23.799 53.697-21.06 1.946 1.946-0.45781 3.9905-7.7914 6.627-3.8498 1.384-16.492 7.1984-28.093 12.921-28.384 14-52.115 25.47-62.344 30.131-8.3427 3.8021-12.864 6.0576-40.312 20.111-13.446 6.8846-16.411 8.0588-16.403 6.4968zm209.99-1.06c0-1.3267 2.2249-2.8031 6.4937-4.3093 2.1935-0.7739 5.6648-2.7351 7.7141-4.3581 4.8194-3.817 7.8283-2.2383 3.1359 1.6453-6.05 5.0073-17.344 9.5798-17.344 7.0221zm160.35-12.73c-1.995-2.4038 1.858-4.8105 16.841-10.52 3.3516-1.2771 8.8359-3.3634 12.188-4.6362 3.3516-1.2728 7.7812-3.111 9.8438-4.085 2.0625-0.97395 5.6484-2.3861 7.9688-3.138 2.3203-0.75197 7.5938-2.6937 11.719-4.315 10.332-4.0609 15.859-4.7151 17.287-2.0462 0.89671 1.6755 0.7963 2.1016-0.60638 2.5732-0.92457 0.31082-4.2842 1.5702-7.466 2.7986-3.1817 1.2284-6.16 2.2335-6.6184 2.2335-1.5911 0-24.169 7.6522-26.034 8.8235-1.0312 0.64773-5.0391 2.3632-8.9062 3.8121-15.779 5.9121-19.302 7.3463-21.068 8.5762-2.3668 1.6487-3.7327 1.6283-5.1479-0.077zm-381.03-12.545c-1.2318-1.9931 2.482-5.0478 5.5346-4.5525 2.4308 0.39447 3.9466-0.16 7.6095-2.7834 3.9451-2.8256 12.249-7.1744 24.73-12.952 1.8047-0.83534 6.2344-3.1684 9.8438-5.1847 9.713-5.4258 32.826-16.868 34.073-16.868 1.005 0 6.3597-2.534 14.208-6.7236 9.1122-4.8644 27.416-12.964 29.296-12.964 0.80745 0 3.6365-1.125 6.2868-2.5 4.5189-2.3445 4.917-2.4017 6.3988-0.91992 2.2559 2.2559 0.58963 4.4265-5.0483 6.5762-4.7901 1.8264-12.137 5.2395-35.292 16.396-7.605 3.6641-14.988 6.9312-16.406 7.2603-1.4184 0.32909-3.5216 1.1864-4.6739 1.9052-1.1522 0.71879-5.7928 2.9375-10.312 4.9304-4.5197 1.993-14.757 6.7844-22.749 10.648-7.9922 3.8633-17.484 8.3165-21.094 9.896-3.6094 1.5795-8.9803 4.1653-11.935 5.7463-5.2546 2.8113-9.5005 3.6588-10.47 2.0898zm209.06-4.0123c1.8743-2.0827 10.86-6.453 13.267-6.453 2.6359 0-0.84073 2.954-6.794 5.7727-6.9057 3.2697-9.002 3.49-6.4734 0.68026zm151.94-12.69c-2.4382-2.4382-1.4459-3.0327 18.594-11.14 36.79-14.884 61.69-20.832 57.27-13.68-0.68164 1.1029-12.711 4.8129-15.696 4.8409-2.1627 0.0202-25.912 7.7496-38.761 12.615-3.6094 1.3667-8.0391 2.9624-9.8438 3.546-1.8047 0.58358-4.2874 1.8222-5.5171 2.7524-2.2794 1.7243-4.9214 2.1903-6.0454 1.0663zm-18.25-28.625c-1.8788-1.8788-1.4347-2.2972 7.5469-7.1107 22.801-12.22 56.977-22.544 61.071-18.45 2.7044 2.7044 1.275 3.6202-10.281 6.5876-13.94 3.5795-31.36 9.5451-45.316 15.519-11.973 5.1247-11.481 4.9941-13.02 3.4541zm-303-0.62216c0-2.8769 16.881-13.258 30.469-18.736 3.0938-1.2474 6.6311-3.0552 7.8608-4.0175 1.2297-0.96228 2.8883-1.7496 3.6859-1.7496 1.3866 0 18.711-7.9992 23.61-10.901 1.2891-0.76368 3.8203-2.0104 5.625-2.7706 1.8047-0.76015 5.6694-2.4842 8.5882-3.8313 5.4462-2.5134 8.2868-2.4479 8.2868 0.19124 0 1.401-4.2962 3.6304-34.219 17.757-3.6094 1.704-10.148 4.6518-14.531 6.5507-4.3828 1.8989-12.188 5.5367-17.344 8.084-5.1562 2.5473-9.7969 4.6279-10.312 4.6236-0.51562-0.005-2.8359 1.2543-5.1562 2.7967-4.2237 2.8078-6.5625 3.5215-6.5625 2.0028zm137.1-9.7372c0.53773-1.6402 11.74-5.5662 12.478-4.3729 0.97988 1.5855-1.3094 3.4103-5.6494 4.5031-5.375 1.3534-7.3029 1.3167-6.8286-0.13021zm-33.35-10.71c-1.9786-1.9786-0.30694-3.9272 5.0424-5.8777 7.2503-2.6436 12.145-3.4691 12.145-2.0483 0 3.2841-14.94 10.174-17.188 7.926zm189.38-5.625c-1.8636-1.8636 0.64838-3.7238 13.203-9.777 22.731-10.96 38.534-15.399 37.562-10.552-0.28582 1.4253-2.7808 2.5163-19.984 8.7389-15.949 5.7688-20.39 7.6186-23.713 9.8766-3.4142 2.32-5.867 2.9145-7.0683 1.7132zm-164.23-10.63c-0.79275-1.2827 3.4859-2.8629 4.6846-1.7301 0.60726 0.57389 0.4447 1.1852-0.46875 1.7627-1.8299 1.1569-3.4886 1.1441-4.2158-0.03262zm-31.4-9.85c0-1.6249 5.2809-5.1337 7.7344-5.139 2.9416-0.0063 1.7278 2.7264-2.072 4.6649-4.4391 2.2647-5.6624 2.3671-5.6624 0.47402zm181.06-2.6466c-1.3814-1.6645-0.21977-2.8734 4.5613-4.7468 5.5541-2.1763 10.12-4.1303 13.672-5.8508 3.8647-1.8721 9.6658-3.1308 10.229-2.2194 0.65508 1.06-0.99787 2.0872-8.9009 5.5315-3.8672 1.6854-8.5222 3.8503-10.345 4.8108-5.9585 3.1406-8.171 3.7347-9.2167 2.4747zm32.69-15.119c0-1.7642 3.1761-3.4756 5.0883-2.7418 1.987 0.76247 1.8568 1.9693-0.33921 3.1446-2.5843 1.3831-4.7491 1.1995-4.7491-0.40278zm-41.77-9.021c-1.15-1.855 16.49-9.293 22.04-9.293 3.3618 0 2.0532 2.5403-2.0704 4.0192-2.1914 0.78592-6.8512 2.5234-10.355 3.8611-7.0316 2.6845-8.6816 2.9269-9.6172 1.413zm-22.372-18.543c-1.1789-1.9075 8.4477-6.6759 10.685-5.2929 1.8532 1.1454 0.9133 2.4661-3.0286 4.2553-4.3296 1.9653-6.8708 2.3096-7.6569 1.0375z"/>
</svg>
